<svg width="233" height="133" viewBox="0 0 233 133" fill="none" xmlns="http://www.w3.org/2000/svg">
<path d="M110.435 121.616L121.616 11.1802L11.1802 2.52102e-05C5.00485 60.9984 49.4371 115.44 110.435 121.616Z" fill="white"/>
<path d="M232.051 22.3604L121.616 11.1802L110.436 121.616C171.434 127.791 225.876 83.3588 232.051 22.3604Z" fill="white"/>
<path d="M177.156 44.4442L141.128 44.148C137.152 44.1628 133.792 47.2459 133.706 51.5759C133.711 55.5677 136.774 58.9341 141.087 59.0102L159.865 59.0019C152.136 64.8956 143.088 68.9824 132.906 70.5863C117.464 72.9466 102.228 69.1955 89.5539 59.9692C77.2161 50.8337 69.0314 37.0154 66.6252 21.8553C65.9467 17.6817 62.2733 15.2388 58.2061 15.5916C54.0476 16.2826 51.6059 19.9765 51.9479 24.0592C54.696 43.3021 64.9341 60.2141 80.5174 72.0397C96.1921 83.5272 115.467 88.3687 134.639 85.5647C147.451 83.5826 158.974 78.3504 169.026 70.5443L168.927 88.2931C168.933 92.2849 171.996 95.6513 176.308 95.7274C180.284 95.7126 183.644 92.6295 183.73 88.2995L184.109 52.1257C184.378 47.1195 182.57 44.4548 177.156 44.4442Z" fill="#262626"/>
</svg>
