<svg width="233" height="133" viewBox="0 0 233 133" fill="none" xmlns="http://www.w3.org/2000/svg">
<path d="M121.614 11.1787L110.436 121.614L220.871 132.793C227.046 71.7946 182.613 17.3532 121.614 11.1787Z" fill="white"/>
<path d="M0 110.436L110.436 121.614L121.614 11.1787C60.6159 5.0042 6.17449 49.4372 0 110.436Z" fill="white"/>
<path d="M51.7165 44.9549L51.4287 80.7907C51.4287 80.7907 50.9491 87.9164 58.1365 88.0432L94.1649 88.3393C98.1408 88.3246 101.501 85.2414 101.587 80.9115C101.581 76.9196 98.5184 73.5533 94.2059 73.4772L75.4273 73.4855C95.5304 57.8733 123.972 56.8465 145.311 72.7654C157.649 81.9009 165.833 95.7192 168.24 110.879C168.918 115.053 172.592 117.496 176.659 117.143C180.817 116.452 183.259 112.758 182.917 108.675C180.169 89.4326 169.931 72.5205 154.347 60.6949C146.847 55.042 138.798 51.4178 130.048 49.0552C107.836 43.0577 84.1396 47.9052 65.7478 62.5284L65.8461 44.7797C65.9946 41.5549 63.6047 38.3703 60.5758 37.5524C59.9027 37.3707 59.2296 37.189 58.8017 37.4362C55.0711 37.8799 51.711 40.9631 51.7165 44.9549Z" fill="#1D9F9C"/>
</svg>
