<svg width="134" height="134" viewBox="0 0 134 134" fill="none" xmlns="http://www.w3.org/2000/svg">
<path fill-rule="evenodd" clip-rule="evenodd" d="M48.24 2.57693H32.8815C30.82 2.57693 28.9646 3.50463 27.6246 5.05078C26.3877 6.59693 25.8723 8.76155 26.2846 10.72L33.7062 45.0446L26.2846 79.3692C25.8723 81.3277 26.3877 83.4923 27.6246 85.0385C28.8615 86.5846 30.82 87.5123 32.8815 87.5123H48.24V74.0092H41.2308L47.1062 46.4877C47.3123 45.56 47.3123 44.5292 47.1062 43.6016L41.2308 16.08H48.24V2.57693Z" fill="url(#paint0_radial_44_4448)"/>
<path fill-rule="evenodd" clip-rule="evenodd" d="M100.397 2.57693H85.0385V16.08H92.0477L86.1723 43.6016C85.9661 44.5292 85.9661 45.56 86.1723 46.4877L92.0477 74.0092H85.0385V87.5123H100.397C102.458 87.5123 104.314 86.5846 105.654 85.0385C106.891 83.4923 107.406 81.3277 106.994 79.3692L99.5723 45.0446L106.994 10.72C107.406 8.76155 106.891 6.59693 105.654 5.05078C104.314 3.50463 102.458 2.57693 100.397 2.57693Z" fill="url(#paint1_radial_44_4448)"/>
<path fill-rule="evenodd" clip-rule="evenodd" d="M71.8447 2.57693H58.4447L61.8462 18.1416C63.7016 26.4908 63.0831 35.0462 60.3 43.0862C56.5893 53.4969 55.8677 64.6292 58.2385 75.4523L60.8154 87.5123H74.5247L71.2262 72.5662C69.577 64.32 70.0924 55.6616 72.9785 47.6216C76.6893 37.2108 77.4108 26.0785 75.04 15.2554L71.8447 2.57693Z" fill="url(#paint2_radial_44_4448)"/>
<path d="M17.5231 112.972V98.9539H23.5015V101.015H19.9969V104.623H23.3985V106.685H19.9969V110.808H23.5015V112.869H17.5231V112.972Z" fill="white"/>
<path d="M30.7169 112.972L27.6246 107.509V112.972H25.1508V98.9539H27.6246V104.417L30.2015 98.9539H32.6754L29.2738 105.963L33.1908 112.972H30.7169Z" fill="white"/>
<path d="M37.4169 100.809L36.4892 107.922H38.3446L37.4169 100.809ZM38.9631 112.972L38.5507 109.983H36.18L35.7677 112.972H33.2938L35.3554 98.9539H39.3754L41.4369 112.972H38.9631Z" fill="white"/>
<path d="M43.3953 112.972V101.015H41.4369V98.9539H47.7246V101.015H45.7661V112.972H43.3953Z" fill="white"/>
<path d="M48.9615 112.972V98.9539H54.94V101.015H51.4354V104.623H54.8369V106.685H51.4354V110.808H54.94V112.869H48.9615V112.972Z" fill="white"/>
<path d="M61.7431 102.665C61.7431 101.531 61.5369 101.118 60.6092 101.118H59.1662V105.757H60.6092C61.5369 105.757 61.7431 105.242 61.7431 104.108V102.665ZM56.6923 112.972V98.9539H61.4339C63.8046 98.9539 64.2169 100.603 64.2169 102.252V104.52C64.2169 106.169 63.8046 107.818 61.4339 107.818H59.1662V112.972H56.6923Z" fill="white"/>
<path d="M65.7631 112.972V98.9539H68.0308L67.9277 107.303L71.2261 98.9539H73.5969V112.972H71.3292L71.4323 104.623L68.2369 112.972H65.7631Z" fill="white"/>
<path d="M80.6061 112.972V106.788H78.0292V112.972H75.5554V98.9539H78.0292V104.726H80.6061V98.9539H83.08V112.972H80.6061Z" fill="white"/>
<path d="M90.0892 107.922C90.0892 106.788 89.8831 106.272 88.9554 106.272H87.5123V110.808H88.9554C89.8831 110.808 90.0892 110.292 90.0892 109.262V107.922ZM92.2538 98.9539V101.015H87.5123V104.211H89.78C92.1508 104.211 92.5631 105.86 92.5631 107.509V109.674C92.5631 111.323 92.1508 112.972 89.78 112.972H85.0385V98.9539H92.2538Z" fill="white"/>
<path d="M94.6246 112.972L95.9646 108.437L93.0784 98.9539H95.5523L97.0984 105.035L98.7477 98.9539H101.118L96.9953 112.972H94.6246Z" fill="white"/>
<path d="M107.097 102.665C107.097 101.531 106.891 101.118 105.963 101.118H104.52V105.757H105.963C106.891 105.757 107.097 105.242 107.097 104.108V102.665ZM102.046 112.972V98.9539H106.788C109.158 98.9539 109.571 100.603 109.571 102.252V104.52C109.571 106.169 109.158 107.818 106.788 107.818H104.52V112.972H102.046Z" fill="white"/>
<path d="M111.014 112.972V98.9539H116.477V101.015H113.488V112.972H111.014Z" fill="white"/>
<path fill-rule="evenodd" clip-rule="evenodd" d="M60.3 117.405H56.6923V119.466H59.0631L58.0323 124.208C58.0323 124.311 58.0323 124.517 58.0323 124.62L59.0631 129.362H56.6923V131.423H60.4031C60.7123 131.423 61.0216 131.32 61.2277 131.011C61.4339 130.805 61.5369 130.495 61.4339 130.186L60.1969 124.414L61.4339 118.642C61.5369 118.332 61.4339 118.023 61.2277 117.817C60.9185 117.508 60.6092 117.405 60.3 117.405Z" fill="url(#paint3_radial_44_4448)"/>
<path fill-rule="evenodd" clip-rule="evenodd" d="M74.3185 117.405H70.4016C69.8862 117.405 69.4739 117.714 69.3708 118.229L69.0616 119.569L68.6492 121.528L66.8969 129.465H64.6292L63.5985 124.517L64.6292 119.569H66.8969L67.4123 121.734L68.34 117.611C68.2369 117.508 68.0308 117.508 67.8246 117.508H63.9077C63.3923 117.508 62.98 117.817 62.8769 118.332L61.64 124.311C61.64 124.414 61.64 124.62 61.64 124.723L62.8769 130.702C62.98 131.217 63.3923 131.526 63.9077 131.526H67.8246C68.34 131.526 68.7523 131.217 68.8554 130.702L69.1646 129.362L69.5769 127.197L71.2262 119.466H73.4939L74.5246 124.414L73.4939 129.362H71.2262L70.7108 127.197L69.7831 131.32C69.9892 131.423 70.0923 131.423 70.2985 131.423H74.2154C74.7308 131.423 75.1431 131.114 75.2462 130.598L76.4831 124.62C76.4831 124.517 76.4831 124.311 76.4831 124.208L75.2462 118.229C75.1431 117.714 74.7308 117.405 74.3185 117.405Z" fill="url(#paint4_radial_44_4448)"/>
<defs>
<radialGradient id="paint0_radial_44_4448" cx="0" cy="0" r="1" gradientUnits="userSpaceOnUse" gradientTransform="translate(38.4614 51.8366) rotate(-73.8422) scale(68.7485 68.4736)">
<stop stop-color="#F3BC00"/>
<stop offset="1" stop-color="#F39314"/>
</radialGradient>
<radialGradient id="paint1_radial_44_4448" cx="0" cy="0" r="1" gradientUnits="userSpaceOnUse" gradientTransform="translate(95.3961 42.5589) rotate(-53.5338) scale(110.118 109.577)">
<stop stop-color="#8C5D91"/>
<stop offset="1" stop-color="#6D3D70"/>
</radialGradient>
<radialGradient id="paint2_radial_44_4448" cx="0" cy="0" r="1" gradientUnits="userSpaceOnUse" gradientTransform="translate(65.4419 50.0559) rotate(-88.6606) scale(51.5068 46.5343)">
<stop stop-color="#2AA7A4"/>
<stop offset="1" stop-color="#009490"/>
</radialGradient>
<radialGradient id="paint3_radial_44_4448" cx="0" cy="0" r="1" gradientUnits="userSpaceOnUse" gradientTransform="translate(59.0136 124.402) scale(5.18178 5.25323)">
<stop stop-color="#2AA7A4"/>
<stop offset="1" stop-color="#009490"/>
</radialGradient>
<radialGradient id="paint4_radial_44_4448" cx="0" cy="0" r="1" gradientUnits="userSpaceOnUse" gradientTransform="translate(69.0842 124.421) scale(7.26748 7.30989)">
<stop stop-color="#2AA7A4"/>
<stop offset="1" stop-color="#009490"/>
</radialGradient>
</defs>
</svg>
