<svg width="315" height="101" viewBox="0 0 315 101" fill="none" xmlns="http://www.w3.org/2000/svg">
<path d="M120.613 12.377C121.549 11.831 122.758 11.35 124.24 10.934C125.748 10.518 127.555 10.31 129.661 10.31C131.403 10.31 132.95 10.453 134.302 10.739C135.68 10.999 136.837 11.415 137.773 11.987C138.709 12.533 139.424 13.248 139.918 14.132C140.412 15.016 140.659 16.082 140.659 17.33C140.659 18.994 140.23 20.32 139.372 21.308C138.514 22.27 137.292 23.037 135.706 23.609C137.916 23.895 139.528 24.558 140.542 25.598C141.556 26.612 142.063 28.016 142.063 29.81C142.063 31.032 141.816 32.163 141.322 33.203C140.854 34.243 140.126 35.153 139.138 35.933C138.176 36.687 136.941 37.285 135.433 37.727C133.951 38.143 132.183 38.364 130.129 38.39C128.907 38.39 127.763 38.299 126.697 38.117C125.657 37.961 124.708 37.74 123.85 37.454C122.992 37.142 122.238 36.791 121.588 36.401C120.964 36.011 120.47 35.608 120.106 35.192V28.25C120.99 29.576 122.277 30.642 123.967 31.448C125.657 32.228 127.698 32.592 130.09 32.54C130.818 32.54 131.52 32.488 132.196 32.384C132.872 32.254 133.457 32.059 133.951 31.799C134.471 31.539 134.874 31.214 135.16 30.824C135.472 30.408 135.628 29.927 135.628 29.381C135.628 28.419 135.212 27.73 134.38 27.314C133.548 26.898 132.183 26.69 130.285 26.69H126.307V21.542H130.246C131.702 21.542 132.729 21.295 133.327 20.801C133.951 20.281 134.263 19.644 134.263 18.89C134.263 17.902 133.873 17.213 133.093 16.823C132.313 16.407 131.169 16.186 129.661 16.16C128.621 16.16 127.646 16.277 126.736 16.511C125.826 16.745 124.981 17.057 124.201 17.447C123.447 17.837 122.758 18.292 122.134 18.812C121.536 19.332 121.029 19.878 120.613 20.45V12.377ZM146.831 38V10.7H159.155C162.535 10.7 164.992 11.311 166.526 12.533C168.086 13.755 168.866 15.471 168.866 17.681C168.866 19.137 168.567 20.359 167.969 21.347C167.397 22.335 166.448 23.141 165.122 23.765C168.164 24.467 169.685 26.56 169.685 30.044C169.685 31.448 169.438 32.657 168.944 33.671C168.45 34.685 167.735 35.517 166.799 36.167C165.889 36.791 164.771 37.259 163.445 37.571C162.145 37.857 160.676 38 159.038 38H146.831ZM159.194 32.15C160.754 32.15 161.846 31.916 162.47 31.448C163.094 30.954 163.406 30.239 163.406 29.303C163.406 28.445 163.094 27.782 162.47 27.314C161.846 26.82 160.754 26.573 159.194 26.573H153.071V32.15H159.194ZM158.648 21.737C160.052 21.737 161.066 21.49 161.69 20.996C162.314 20.502 162.626 19.852 162.626 19.046C162.626 18.266 162.327 17.655 161.729 17.213C161.157 16.771 160.182 16.55 158.804 16.55H153.071V21.737H158.648ZM192.188 26.885H180.683V32.15H194.06V38H174.443V10.7H193.631V16.55H180.683V21.035H192.188V26.885ZM205.706 30.356V38H199.466V10.7H208.748C211.14 10.7 213.155 10.908 214.793 11.324C216.457 11.74 217.796 12.364 218.81 13.196C219.85 14.002 220.591 15.003 221.033 16.199C221.501 17.395 221.735 18.76 221.735 20.294C221.735 23.7 220.643 26.235 218.459 27.899C216.275 29.537 213.038 30.356 208.748 30.356H205.706ZM205.706 16.55V24.506H209.528C211.504 24.506 212.96 24.168 213.896 23.492C214.832 22.816 215.3 21.763 215.3 20.333C215.3 19.033 214.871 18.084 214.013 17.486C213.181 16.862 211.79 16.55 209.84 16.55H205.706ZM141.01 71.581H144.091L149.434 60.7H156.259L149.473 73.726L157.273 88H149.902L144.13 76.729H141.01V88H134.77V76.729H131.728L125.956 88H118.585L126.268 74.116L119.482 60.7H126.58L131.689 71.581H134.77V60.7H141.01V71.581ZM178.858 76.885H167.353V82.15H180.73V88H161.113V60.7H180.301V66.55H167.353V71.035H178.858V76.885ZM208.687 85.192C208.349 85.608 207.881 86.011 207.283 86.401C206.685 86.791 205.97 87.142 205.138 87.454C204.332 87.766 203.422 88.013 202.408 88.195C201.42 88.377 200.341 88.468 199.171 88.468C196.909 88.468 194.829 88.156 192.931 87.532C191.059 86.882 189.447 85.959 188.095 84.763C186.743 83.541 185.69 82.059 184.936 80.317C184.182 78.575 183.805 76.573 183.805 74.311C183.805 72.205 184.169 70.294 184.897 68.578C185.651 66.836 186.704 65.354 188.056 64.132C189.434 62.884 191.059 61.922 192.931 61.246C194.829 60.57 196.935 60.232 199.249 60.232C201.329 60.232 203.123 60.453 204.631 60.895C206.139 61.337 207.361 61.831 208.297 62.377V70.45C207.855 69.878 207.335 69.332 206.737 68.812C206.139 68.292 205.45 67.837 204.67 67.447C203.916 67.031 203.084 66.706 202.174 66.472C201.264 66.212 200.289 66.082 199.249 66.082C197.923 66.082 196.727 66.29 195.661 66.706C194.595 67.096 193.685 67.655 192.931 68.383C192.203 69.085 191.631 69.943 191.215 70.957C190.825 71.971 190.63 73.102 190.63 74.35C190.63 75.494 190.812 76.573 191.176 77.587C191.54 78.575 192.073 79.446 192.775 80.2C193.503 80.928 194.4 81.513 195.466 81.955C196.558 82.397 197.819 82.618 199.249 82.618C201.537 82.618 203.474 82.228 205.06 81.448C206.646 80.642 207.855 79.576 208.687 78.25V85.192ZM234.15 66.55H225.531V88H219.291V66.55H211.023V60.7H234.15V66.55ZM244.325 68.344H246.314C248.706 68.344 250.721 68.565 252.359 69.007C254.023 69.423 255.362 70.047 256.376 70.879C257.416 71.685 258.157 72.686 258.599 73.882C259.067 75.052 259.301 76.404 259.301 77.938C259.301 81.344 258.209 83.879 256.025 85.543C253.867 87.181 250.643 88 246.353 88H238.085V60.7H244.325V68.344ZM261.368 60.7H267.608V88H261.368V60.7ZM244.325 74.194V82.15H247.094C249.07 82.15 250.526 81.825 251.462 81.175C252.398 80.499 252.866 79.433 252.866 77.977C252.866 76.677 252.437 75.728 251.579 75.13C250.747 74.506 249.356 74.194 247.406 74.194H244.325Z" fill="#1D9F9C"/>
<path d="M111 94L315 94L111 38V94Z" fill="#262626" fill-opacity="0.42"/>
<path d="M5.5531e-06 47.5C4.4064e-06 73.7335 21.2665 95 47.5 95C73.7335 95 95 73.7335 95 47.5C95 21.2665 73.7335 -9.29587e-07 47.5 -2.07629e-06C21.2665 -3.22299e-06 6.69981e-06 21.2665 5.5531e-06 47.5Z" fill="#1D9F9C"/>
<path d="M19.7875 35.3165L0.525485 54.5785C2.92535 70.6387 13.365 84.0695 27.6177 90.6479L50.7319 67.5338L19.7875 35.3165Z" fill="#1E6A68"/>
<path d="M45.7471 53.3436L27.7083 35.3047C25.522 33.1184 21.9778 33.1188 19.7915 35.3047C17.6056 37.491 17.6056 41.0352 19.7915 43.2215L43.5415 66.9715C45.7275 69.1578 49.272 69.1574 51.4583 66.9715L75.2083 43.2215C77.3942 41.0352 77.3942 37.491 75.2083 35.3047C73.0223 33.1184 69.4778 33.1188 67.2915 35.3047L49.2527 53.3436C48.2847 54.3118 46.7151 54.3118 45.7471 53.3436Z" fill="white"/>
<path d="M47.5 54.0698C46.8658 54.0698 46.231 53.8277 45.7471 53.3437L27.7083 35.3049C25.5223 33.1186 21.9778 33.1186 19.7915 35.3049C17.6056 37.4912 17.6056 41.0353 19.7915 43.2216L43.5415 66.9716C44.6346 68.0647 46.0672 68.6113 47.4998 68.6113L47.4998 54.0698L47.5 54.0698Z" fill="#BFBFBF"/>
</svg>
