<svg width="95" height="95" viewBox="0 0 95 95" fill="none" xmlns="http://www.w3.org/2000/svg">
<path d="M5.5531e-06 47.5C4.4064e-06 73.7335 21.2665 95 47.5 95C73.7335 95 95 73.7335 95 47.5C95 21.2665 73.7335 -9.29587e-07 47.5 -2.07629e-06C21.2665 -3.22299e-06 6.69981e-06 21.2665 5.5531e-06 47.5Z" fill="#1D9F9C"/>
<path d="M19.7875 35.3165L0.525485 54.5785C2.92535 70.6387 13.365 84.0695 27.6177 90.6479L50.7319 67.5338L19.7875 35.3165Z" fill="#1E6A68"/>
<path d="M45.7471 53.3436L27.7083 35.3047C25.522 33.1184 21.9778 33.1188 19.7915 35.3047C17.6056 37.491 17.6056 41.0352 19.7915 43.2215L43.5415 66.9715C45.7275 69.1578 49.272 69.1574 51.4583 66.9715L75.2083 43.2215C77.3942 41.0352 77.3942 37.491 75.2083 35.3047C73.0223 33.1184 69.4778 33.1188 67.2915 35.3047L49.2527 53.3436C48.2847 54.3118 46.7151 54.3118 45.7471 53.3436Z" fill="white"/>
<path d="M47.5 54.0698C46.8658 54.0698 46.231 53.8277 45.7471 53.3437L27.7083 35.3049C25.5223 33.1186 21.9778 33.1186 19.7915 35.3049C17.6056 37.4912 17.6056 41.0353 19.7915 43.2216L43.5415 66.9716C44.6346 68.0647 46.0672 68.6113 47.4998 68.6113L47.4998 54.0698L47.5 54.0698Z" fill="#BFBFBF"/>
</svg>
