<svg width="95" height="95" viewBox="0 0 95 95" fill="none" xmlns="http://www.w3.org/2000/svg">
<path d="M40.3427 74.4967C36.1297 72.6164 32.6498 69.6864 30.3625 65.7639" stroke="#1C274C" stroke-width="3.75" stroke-linecap="round"/>
<path d="M55.4468 24.9618C59.639 23.769 63.967 24.9046 66.988 27.99" stroke="#1C274C" stroke-width="3.75" stroke-linecap="round"/>
<g filter="url(#filter0_d_122_10)">
<rect width="79" height="79" rx="39.5" transform="matrix(1 0 0 -1 8 87)" fill="white"/>
</g>
<path d="M44.4251 43.3099C44.9469 44.2045 46.0949 44.5067 46.9894 43.9851C47.8839 43.4635 48.1861 42.3154 47.6646 41.4209L44.4251 43.3099ZM37.229 49.8287C37.7507 50.7232 38.8987 51.0255 39.7933 50.5037C40.6878 49.9822 40.9901 48.8342 40.4685 47.9395L37.229 49.8287ZM58.5026 44.8697L59.4331 46.4977C59.8674 46.2495 60.1844 45.8382 60.3139 45.3552C60.4434 44.872 60.3744 44.3573 60.1224 43.9253L58.5026 44.8697ZM52.8439 57.747C53.3656 58.6415 54.5136 58.9437 55.4081 58.4222C56.3029 57.9005 56.6051 56.7525 56.0834 55.858L52.8439 57.747ZM29.3407 42.0412C30.9249 41.1359 32.4844 41.6924 33.0196 42.6101L36.259 40.721C34.4694 37.652 30.4513 37.0873 27.48 38.7855L29.3407 42.0412ZM27.48 38.7855C24.5029 40.4869 22.9722 44.2392 24.7711 47.3242L28.0106 45.4352C27.4847 44.5335 27.7623 42.9433 29.3407 42.0412L27.48 38.7855ZM36.0063 28.8728L38.111 32.4821L41.3504 30.5931L39.2457 26.9838L36.0063 28.8728ZM38.111 32.4821L44.4251 43.3099L47.6646 41.4209L41.3504 30.5931L38.111 32.4821ZM40.4685 47.9395L36.259 40.721L33.0196 42.6101L37.229 49.8287L40.4685 47.9395ZM36.259 40.721L30.9972 31.6979L27.7578 33.5869L33.0196 42.6101L36.259 40.721ZM32.3274 28.304C33.9116 27.3986 35.4711 27.9552 36.0063 28.8728L39.2457 26.9838C37.456 23.9148 33.438 23.3501 30.4667 25.0482L32.3274 28.304ZM30.4667 25.0482C27.4896 26.7497 25.9588 30.502 27.7578 33.5869L30.9972 31.6979C30.4714 30.7962 30.749 29.2061 32.3274 28.304L30.4667 25.0482ZM46.3594 27.768L52.6736 38.5958L55.9131 36.7068L49.5989 25.879L46.3594 27.768ZM52.6736 38.5958L56.8831 45.8142L60.1224 43.9253L55.9131 36.7068L52.6736 38.5958ZM42.6806 27.1992C44.2649 26.2938 45.8244 26.8503 46.3594 27.768L49.5989 25.879C47.8091 22.81 43.7911 22.2452 40.8199 23.9434L42.6806 27.1992ZM40.8199 23.9434C37.8427 25.6448 36.312 29.3971 38.111 32.4821L41.3504 30.5931C40.8246 29.6913 41.1022 28.1012 42.6806 27.1992L40.8199 23.9434ZM60.9221 33.8817L67.2361 44.7095L70.4756 42.8205L64.1614 31.9927L60.9221 33.8817ZM57.2431 33.3129C58.8274 32.4075 60.3869 32.964 60.9221 33.8817L64.1614 31.9927C62.3719 28.9237 58.3539 28.3589 55.3824 30.0571L57.2431 33.3129ZM55.3824 30.0571C52.4054 31.7585 50.8746 35.5109 52.6736 38.5958L55.9131 36.7068C55.3871 35.805 55.6649 34.2149 57.2431 33.3129L55.3824 30.0571ZM24.7711 47.3242L34.2423 63.566L37.4818 61.6767L28.0106 45.4352L24.7711 47.3242ZM59.8474 66.0022C51.4301 70.813 41.5041 68.5745 37.4818 61.6767L34.2423 63.566C39.5192 72.615 51.9036 74.8615 61.7081 69.2582L59.8474 66.0022ZM67.2361 44.7095C71.2491 51.5912 68.2591 61.195 59.8474 66.0022L61.7081 69.2582C71.5186 63.6515 75.7619 51.8855 70.4756 42.8205L67.2361 44.7095ZM56.0834 55.858C54.3951 52.9627 55.5769 48.7015 59.4331 46.4977L57.5724 43.2419C52.3176 46.2452 49.8826 52.6687 52.8439 57.747L56.0834 55.858Z" fill="#1C274C"/>
<defs>
<filter id="filter0_d_122_10" x="0" y="0" width="95" height="95" filterUnits="userSpaceOnUse" color-interpolation-filters="sRGB">
<feFlood flood-opacity="0" result="BackgroundImageFix"/>
<feColorMatrix in="SourceAlpha" type="matrix" values="0 0 0 0 0 0 0 0 0 0 0 0 0 0 0 0 0 0 127 0" result="hardAlpha"/>
<feMorphology radius="4" operator="dilate" in="SourceAlpha" result="effect1_dropShadow_122_10"/>
<feOffset/>
<feGaussianBlur stdDeviation="2"/>
<feComposite in2="hardAlpha" operator="out"/>
<feColorMatrix type="matrix" values="0 0 0 0 0 0 0 0 0 0 0 0 0 0 0 0 0 0 0.25 0"/>
<feBlend mode="normal" in2="BackgroundImageFix" result="effect1_dropShadow_122_10"/>
<feBlend mode="normal" in="SourceGraphic" in2="effect1_dropShadow_122_10" result="shape"/>
</filter>
</defs>
</svg>
