<svg width="56" height="55" viewBox="0 0 56 55" fill="none" xmlns="http://www.w3.org/2000/svg">
<path d="M0.292291 8.09312L3.91936 19.9284C3.91936 19.9284 4.4983 22.3266 6.9322 21.6048L19.0973 17.8744C20.4349 17.4471 21.2461 16.0744 20.8251 14.639C20.4084 13.3246 19.027 12.5411 17.5667 12.9742L11.2429 14.9722C16.3912 7.69342 25.8637 4.33329 34.7048 7.30996C39.8095 9.00842 44.0021 12.6907 46.3879 17.429C47.0501 18.7317 48.5412 19.1461 49.8743 18.5978C51.2031 17.9283 51.6416 16.4521 51.1022 15.1435C48.1769 9.09671 42.9713 4.61346 36.4939 2.37367C33.3802 1.30849 30.2929 0.969783 27.1003 1.12121C18.996 1.50559 11.5189 5.62007 6.84425 12.3912L5.03291 6.53413C4.74783 5.45608 3.61198 4.66095 2.50685 4.71337C2.26127 4.72501 2.01568 4.73666 1.89727 4.86356C0.686907 5.40611 -0.12436 6.77873 0.292291 8.09312Z" fill="#1D9F9C"/>
<path d="M48.7222 32.4716L36.5571 36.202C35.2195 36.6293 34.4083 38.0019 34.8293 39.4374C35.2459 40.7518 36.6274 41.5352 38.0877 41.1021L44.4115 39.1042C42.4206 41.8669 39.7981 44.1744 36.5354 45.7846C31.5799 48.2028 26.0587 48.5859 20.8312 46.8933C15.7265 45.1948 11.5339 41.5125 9.1481 36.7743C8.48587 35.4715 6.9948 35.0571 5.66164 35.6055C4.33287 36.2749 3.89438 37.7512 4.43382 39.0597C7.35906 45.1065 12.5647 49.5898 19.042 51.8296C25.515 53.9483 32.5098 53.4952 38.6756 50.5345C42.7847 48.5203 46.122 45.5725 48.6961 41.9331L50.5075 47.7902C50.9241 49.1046 52.3055 49.8881 53.7659 49.4549C55.1034 49.0276 55.9147 47.655 55.4937 46.2196L51.8622 34.2632C51.4324 32.5856 50.5465 31.8999 48.7222 32.4716Z" fill="#1D9F9C"/>
</svg>
